<?xml version="1.0" encoding="UTF-8" standalone="no"?>
<!-- Copyrights reserved e-Pies PiesikotCorp -->
<!-- Created with Inkscape (http://www.inkscape.org/) -->

<svg
   version="1.1"
   id="svg2"
   width="259"
   height="235"
   viewBox="0 0 259 235"
   sodipodi:docname="logo.svg"
   inkscape:version="1.1.1 (3bf5ae0d25, 2021-09-20, custom)"
   xmlns:inkscape="http://www.inkscape.org/namespaces/inkscape"
   xmlns:sodipodi="http://sodipodi.sourceforge.net/DTD/sodipodi-0.dtd"
   xmlns="http://www.w3.org/2000/svg"
   xmlns:svg="http://www.w3.org/2000/svg">
  <defs
     id="defs6">
    <rect
       x="132.21331"
       y="92.757111"
       width="152.40245"
       height="82.537762"
       id="rect16306" />
    <rect
       x="128.25216"
       y="95.289407"
       width="115.63654"
       height="42.788916"
       id="rect12648" />
  </defs>
  <sodipodi:namedview
     id="namedview4"
     pagecolor="#ffffff"
     bordercolor="#666666"
     borderopacity="1.0"
     inkscape:pageshadow="2"
     inkscape:pageopacity="0.0"
     inkscape:pagecheckerboard="0"
     showgrid="false"
     inkscape:zoom="1.5297872"
     inkscape:cx="-102.95549"
     inkscape:cy="23.859527"
     inkscape:window-width="1280"
     inkscape:window-height="950"
     inkscape:window-x="0"
     inkscape:window-y="0"
     inkscape:window-maximized="1"
     inkscape:current-layer="g8" />
  <g
     inkscape:groupmode="layer"
     inkscape:label="Image"
     id="g8">
    <path
       style="fill:#000000"
       d="M 0.10032557,117.6089 V 0.10889949 H 129.60033 h 129.5 V 117.6089 v 117.5 h -129.5 H 0.10032557 Z M 45.703055,229.516 c -0.33619,-0.8761 -0.89639,-2.7886 -1.24488,-4.25 -0.34849,-1.46141 -0.96167,-3.1071 -1.36263,-3.6571 -1.45937,-2.00187 -4.7772,-14.19343 -5.96477,-21.91787 -0.78428,-5.10133 -2.11832,-9.34517 -3.75023,-11.93029 -7.07275,-11.20396 -8.69477,-24.6019 -4.54041,-37.50376 4.20863,-13.07037 6.42917,-23.44729 5.96135,-27.85831 -0.45611,-4.30063 0.67868,-6.23851 4.42669,-7.55951 1.26286,-0.4451 1.53129,-1.54422 1.1972,-4.902 -0.23686,-2.38054 -0.89666,-5.27299 -1.46623,-6.42765 -0.82146,-1.66533 -0.4756,-3.17031 1.67279,-7.27903 1.4896,-2.8488 3.54905,-5.62957 4.57657,-6.17947 1.02751,-0.54991 2.1473,-2.11185 2.48842,-3.47098 0.34112,-1.35912 0.97036,-2.47113 1.39831,-2.47113 0.42795,0 1.01231,-1.2375 1.29858,-2.75 3.03984,-16.06116 9.61749,-31.25 13.53304,-31.25 1.78875,0 2.36819,-3.87998 1.1367,-7.61141 -1.05496,-3.19658 -1.46436,-3.51046 -3.82237,-2.93061 -3.73525,0.91854 -6.28089,0.80198 -7.42272,-0.33984 -1.0947,-1.09471 -0.93801,-1.508669 3.26211,-8.618141 1.62464,-2.75 2.96871,-6.032955 2.98682,-7.295455 0.0339,-2.363735 2.92833,-5.718283 6.90877,-8.007065 1.89086,-1.087262 3.50259,-1.02723 9.75256,0.363257 4.11804,0.916177 8.6988,2.62731 10.17947,3.802519 4.46896,3.547011 11.19335,6.434901 20.975285,9.008139 12.26804,3.227234 13.80802,4.309156 14.46801,10.164556 0.28952,2.5686 1.13895,5.27576 1.88762,6.01592 0.74867,0.74016 4.46973,1.83876 8.26903,2.44134 14.8625,2.35722 16.40911,2.89674 17.08164,5.95875 1.19264,5.43004 -9.32852,21.04804 -14.17914,21.04804 -0.6787,0 -4.57632,1.58647 -8.66139,3.52549 -7.40242,3.51363 -8.24799,4.44053 -10.10109,11.07275 -0.32245,1.15404 -1.71525,2.61264 -3.09512,3.24135 -1.37986,0.62871 -2.76936,1.822 -3.08776,2.65176 -0.31841,0.82976 -1.20578,1.50865 -1.97194,1.50865 -1.79813,0 -1.93006,10.17017 -0.17273,13.31574 1.36956,2.45148 2.78664,6.05142 6.30351,16.01337 1.32598,3.75601 3.27997,8.25601 4.34219,10 1.06222,1.74399 2.4773,5.87089 3.14463,9.17089 1.58415,7.83376 2.02568,8.5815 10.62868,18 4.01903,4.4 8.56322,10.025 10.09819,12.5 3.09126,4.98434 8.26252,15.42272 8.26252,16.67819 0,1.55863 7.10734,15.166 8.54436,16.35863 0.8006,0.66444 1.45564,1.82797 1.45564,2.58562 0,0.75766 0.45,1.37756 1,1.37756 0.55,0 1,0.53656 1,1.19235 0,0.65579 2.3625,3.46933 5.25,6.25231 2.8875,2.78297 6.375,6.51733 7.75,8.29857 l 2.5,3.23862 38.25,0.009 38.25,0.009 v -113.5 V 4.1087495 h -125.5 H 4.1003257 v 113.5000005 113.5 H 25.207315 c 18.89804,0 21.04302,-0.16671 20.49574,-1.5929 z m 28.39727,1.05069 c 0,-0.29821 -0.45489,-1.08571 -1.01088,-1.75 -0.55599,-0.66428 -1.92544,-2.4285 -3.04323,-3.92048 -1.11779,-1.49198 -3.3629,-3.66012 -4.98912,-4.81809 l -2.95677,-2.10541 v 6.5681 6.56809 h 6 c 3.3,0 6,-0.24399 6,-0.54221 z"
       id="path30"
       sodipodi:nodetypes="ccccccccccssssssssssssscssccssssssssssssssssssssssssssssscccccccccsccsssscccss" />
    <text
       xml:space="preserve"
       style="font-style:normal;font-weight:normal;font-size:40px;line-height:1.25;font-family:sans-serif;fill:#000000;fill-opacity:1;stroke:none"
       x="121.15583"
       y="99.667587"
       id="text8327"><tspan
         sodipodi:role="line"
         id="tspan8325"
         x="121.15583"
         y="99.667587"></tspan></text>
    <text
       xml:space="preserve"
       id="text12646"
       style="font-style:normal;font-weight:normal;font-size:40px;line-height:1.25;font-family:sans-serif;white-space:pre;shape-inside:url(#rect12648);fill:#000000;fill-opacity:1;stroke:none"
       transform="translate(-14.701391,-7.687011)" />
    <text
       xml:space="preserve"
       id="text16304"
       style="font-style:normal;font-weight:normal;font-size:33.3333px;line-height:1.25;font-family:sans-serif;white-space:pre;shape-inside:url(#rect16306);fill:#000000;fill-opacity:1;stroke:none"
       transform="translate(-15.10714,-10.620336)"><tspan
         x="132.21289"
         y="122.24997"
         id="tspan44690"><tspan
           style="font-weight:bold;-inkscape-font-specification:'sans-serif Bold'"
           id="tspan44688">e-Pies</tspan></tspan></text>
  </g>
</svg>
