<?xml version="1.0" standalone="no"?>
<!-- Copyrights reserved e-Pies PiesikotCorp -->
<!DOCTYPE svg PUBLIC "-//W3C//DTD SVG 20010904//EN"
 "http://www.w3.org/TR/2001/REC-SVG-20010904/DTD/svg10.dtd">
<svg version="1.0" xmlns="http://www.w3.org/2000/svg"
 width="153.000000pt" height="214.000000pt" viewBox="0 0 153.000000 214.000000"
 preserveAspectRatio="xMidYMid meet">

<g transform="translate(0.000000,214.000000) scale(0.100000,-0.100000)"
fill="#000000" stroke="none">
<path d="M383 2106 c-17 -15 -37 -43 -44 -64 -6 -20 -25 -61 -41 -89 -16 -29
-26 -58 -23 -64 4 -6 28 -9 53 -8 41 3 48 0 59 -21 20 -39 16 -57 -22 -91 -38
-35 -84 -141 -111 -255 -14 -64 -46 -127 -76 -152 -8 -6 -23 -30 -33 -51 -14
-33 -16 -49 -7 -97 11 -68 9 -78 -22 -92 -20 -9 -24 -20 -29 -84 -3 -40 -22
-131 -42 -203 -32 -115 -36 -140 -33 -220 4 -80 8 -100 46 -181 24 -51 48
-125 57 -171 9 -45 25 -107 36 -140 11 -32 25 -73 31 -90 l11 -33 83 0 83 0 3
53 3 52 53 -52 53 -53 516 0 516 0 -59 63 c-94 100 -93 98 -198 312 -72 144
-97 184 -166 265 -88 102 -104 126 -115 180 -4 19 -22 71 -40 115 -134 321
-138 343 -69 407 25 24 54 62 64 86 20 43 47 61 182 116 59 24 147 161 133
207 -8 24 -34 35 -122 49 -119 20 -131 26 -144 73 -6 23 -13 47 -15 54 -6 21
-52 45 -137 69 -45 13 -128 47 -184 75 -131 66 -202 76 -250 35z"/>
</g>
</svg>
